<svg width="85" height="24" viewBox="0 0 85 24" fill="none" xmlns="http://www.w3.org/2000/svg">
<g clip-path="url(#clip0_454_3168)">
<path d="M84.7459 4.85635C84.7364 4.82481 84.7269 4.79326 84.7144 4.76172C77.2417 4.76487 69.7722 4.76172 62.3026 4.76487C62.2837 4.78695 62.2711 4.80903 62.2679 4.83742C62.2679 10.632 62.2679 16.4234 62.2647 22.218C62.312 22.527 62.4824 22.8078 62.7095 23.0192C62.719 23.0223 62.7411 23.0254 62.7505 23.0286C62.8673 23.1515 63.0344 23.2116 63.1922 23.2683C63.3089 23.262 63.4224 23.3125 63.5391 23.2999H72.813C72.9013 23.2967 72.9927 23.3125 73.0779 23.2778C73.0811 23.2653 73.0842 23.2431 73.0873 23.2305C73.0905 23.2147 73.0936 23.18 73.0968 23.1611C73.2956 22.0508 73.4879 20.9373 73.6993 19.827L73.7183 19.6851C72.8603 19.6818 71.9991 19.6851 71.1412 19.6818C70.933 19.6756 70.7185 19.6818 70.5103 19.6566C70.1539 19.6408 69.7943 19.6534 69.4379 19.6188C68.9962 19.6188 68.5578 19.5777 68.1162 19.5777C67.7692 19.543 67.4191 19.5557 67.0689 19.5399C66.8419 19.5116 66.6084 19.5241 66.3782 19.5146C66.0028 19.4737 65.6211 19.5021 65.2458 19.461C64.8483 19.4643 64.4509 19.4295 64.0534 19.42C64.0566 19.4168 64.0597 19.4042 64.0597 19.4011C64.1922 19.4042 64.3215 19.3948 64.454 19.3916C64.7474 19.3538 65.0439 19.379 65.3372 19.338C65.6432 19.338 65.946 19.297 66.252 19.297C66.5233 19.2591 66.7977 19.2812 67.0689 19.2434C67.3876 19.2434 67.6998 19.2024 68.0185 19.1992C68.2803 19.1645 68.5452 19.1834 68.807 19.1487C69.113 19.1519 69.4158 19.1046 69.7218 19.1078C70.0215 19.073 70.3274 19.0824 70.627 19.0509C70.5987 18.9343 70.5766 18.8175 70.5514 18.7007C70.5293 18.6282 70.441 18.644 70.3842 18.6345C69.6997 18.5367 69.0184 18.439 68.337 18.3443C68.3812 18.3096 68.4411 18.3253 68.4916 18.3191C69.0215 18.278 69.5483 18.2307 70.0782 18.1929C70.1981 18.1866 70.3148 18.1645 70.4347 18.1613C70.3811 17.9974 70.3495 17.8175 70.277 17.6661C69.1446 17.4927 68.0121 17.3381 66.8829 17.152C67.1762 17.1046 67.4727 17.0826 67.7661 17.051L67.7913 17.0416C68.7282 16.9437 69.6682 16.8333 70.605 16.7419C71.7942 16.7356 72.9803 16.7387 74.1695 16.7419C74.2072 16.7356 74.2736 16.7544 74.2799 16.7008C74.3776 16.1899 74.4723 15.6789 74.57 15.1678C74.7056 14.4582 74.9201 13.7579 75.2513 13.1112C75.7718 12.0703 76.5951 11.1871 77.5981 10.6004C78.535 10.0515 79.6201 9.78655 80.6989 9.73608C81.0491 9.70454 81.4023 9.714 81.7493 9.75816C81.9764 9.81179 82.2099 9.87487 82.3897 10.0294C82.5379 10.1493 82.6262 10.3259 82.6925 10.5026C82.8376 10.9221 82.9196 11.3574 82.989 11.7959C82.9921 11.9725 83.0237 12.1712 82.9291 12.3321C82.8407 12.4898 82.6641 12.5655 82.4969 12.6129C81.8881 12.7706 81.251 12.6223 80.6421 12.7706C80.1407 12.8778 79.6738 13.1554 79.3552 13.556C78.9798 14.0228 78.7811 14.6032 78.6707 15.1837C78.5855 15.701 78.4782 16.2183 78.3931 16.7387C78.9924 16.742 79.5949 16.7356 80.1974 16.7419C80.4371 16.7419 80.6831 16.8744 80.7809 17.1015C80.9071 17.3917 80.8787 17.7198 80.8377 18.0257C80.7872 18.3696 80.7052 18.7102 80.5507 19.0256C80.4213 19.2938 80.2068 19.5398 79.9135 19.6345C79.7621 19.6944 79.598 19.6818 79.4372 19.6818C78.9072 19.6818 78.3772 19.6881 77.8474 19.6818C77.7622 20.0698 77.7054 20.4672 77.6297 20.8615C77.491 21.628 77.3553 22.3977 77.2165 23.1674C77.2134 23.1926 77.2102 23.2462 77.2102 23.2746C77.4594 23.2872 77.7086 23.2746 77.9578 23.2809C79.8062 23.2809 81.6578 23.2777 83.5095 23.2809C83.7082 23.2872 83.9101 23.2399 84.0835 23.1421C84.1876 23.1043 84.2507 23.0128 84.3422 22.9623C84.4305 22.9118 84.4558 22.8078 84.5315 22.7415C84.6135 22.5964 84.6986 22.4451 84.705 22.2746C84.7144 22.2746 84.7397 22.2715 84.7523 22.2684C84.7427 16.4644 84.7522 10.6604 84.7459 4.85635Z" fill="url(#paint0_linear_454_3168)" stroke="#FCD109" stroke-width="0.0029651"/>
<path d="M65.2078 1.03983C65.476 0.95466 65.7567 1.01144 66.0312 0.992512C71.1823 0.995666 76.3333 0.992512 81.4843 0.992512C81.7903 0.979895 82.0584 1.15338 82.3423 1.24171C82.5694 1.33318 82.806 1.40573 83.0331 1.50352C83.0805 1.52244 83.1151 1.56345 83.1498 1.59815C83.1466 2.01453 83.1498 2.43405 83.1498 2.85359C83.153 2.96399 83.134 3.07754 83.1719 3.18479C83.2382 3.19426 83.2728 3.24473 83.317 3.28573C83.5252 3.38036 83.7018 3.53493 83.8911 3.6611C84.1749 3.86298 84.4778 4.03962 84.7554 4.24781C84.7679 4.32983 84.7585 4.41499 84.7333 4.4907C84.7049 4.57902 84.7238 4.67365 84.7143 4.76197C77.2417 4.76513 69.7721 4.76197 62.3026 4.76513C62.2868 4.66103 62.3152 4.55694 62.2711 4.45915C62.2648 4.37714 62.2364 4.26989 62.3152 4.21311C62.6307 3.99231 62.965 3.79358 63.2741 3.56016C63.4666 3.43714 63.6526 3.31097 63.8387 3.18479C63.8766 3.12171 63.864 3.04285 63.864 2.97345C63.864 2.51607 63.864 2.05869 63.8671 1.6013C63.9744 1.46251 64.1605 1.44674 64.3087 1.37734C64.6085 1.26379 64.9113 1.15338 65.2078 1.03983ZM65.2268 1.09345C64.823 1.24802 64.4161 1.39627 64.0123 1.55083C63.9587 1.5603 63.9303 1.60761 63.9019 1.64862C63.9051 1.67385 63.9082 1.71802 63.9082 1.74325C63.905 2.12177 63.9082 2.5003 63.905 2.87882C63.9082 2.97345 63.8956 3.06808 63.9303 3.15325C63.8893 3.19426 63.8452 3.23526 63.7946 3.26681C63.3372 3.56332 62.8956 3.88506 62.4383 4.17842C62.3594 4.22573 62.2711 4.28882 62.2963 4.39291C62.2805 4.44969 62.3089 4.49701 62.3689 4.48124C63.3593 4.47493 64.3466 4.48754 65.3372 4.47177C66.8103 4.47177 68.2802 4.47493 69.7533 4.47177L69.7754 4.46231C69.8416 4.47808 69.9078 4.47177 69.9772 4.47177C72.6458 4.47177 75.3144 4.47493 77.9861 4.47177C78.8252 4.47493 79.6674 4.47177 80.5096 4.47177C81.8975 4.47177 83.2886 4.48439 84.6765 4.47808C84.7175 4.46862 84.7301 4.44023 84.7143 4.38976C84.7111 4.33929 84.7301 4.26989 84.6765 4.23835C84.4557 4.13426 84.2664 3.97338 84.0551 3.84721C83.9794 3.78412 83.8816 3.74942 83.8248 3.66426C83.6072 3.54124 83.4053 3.38983 83.1908 3.25419C83.1497 3.22895 83.1182 3.18795 83.0835 3.15325C83.1025 3.08701 83.1088 3.01446 83.1088 2.94506C83.1056 2.54446 83.1088 2.14385 83.1056 1.74325C83.1151 1.68016 83.1119 1.60761 83.0551 1.56661C82.6766 1.43097 82.3013 1.28587 81.9258 1.14708C81.8091 1.0903 81.6798 1.05875 81.5536 1.03983H65.4317C65.3624 1.04298 65.2962 1.07768 65.2268 1.09345Z" fill="#F8F3B5"/>
<path d="M65.2078 1.03983C65.476 0.95466 65.7567 1.01144 66.0312 0.992512C71.1823 0.995666 76.3333 0.992512 81.4843 0.992512C81.7903 0.979895 82.0584 1.15338 82.3423 1.24171C82.5694 1.33318 82.806 1.40573 83.0331 1.50352C83.0804 1.52244 83.1151 1.56345 83.1498 1.59815C83.1466 2.01453 83.1498 2.43405 83.1498 2.85358C83.153 2.96399 83.134 3.07754 83.1719 3.18479C83.2382 3.19426 83.2728 3.24473 83.317 3.28573C83.5252 3.38036 83.7018 3.53493 83.8911 3.6611C84.1749 3.86298 84.4778 4.03962 84.7554 4.24781C84.7679 4.32983 84.7585 4.41499 84.7333 4.4907C84.7049 4.57902 84.7238 4.67365 84.7143 4.76197C77.2417 4.76513 69.7721 4.76197 62.3026 4.76513C62.2868 4.66103 62.3152 4.55694 62.2711 4.45915C62.2648 4.37714 62.2364 4.26989 62.3152 4.21311C62.6307 3.99231 62.965 3.79358 63.2741 3.56016C63.4666 3.43714 63.6526 3.31097 63.8387 3.18479C63.8766 3.12171 63.864 3.04285 63.864 2.97345C63.864 2.51607 63.864 2.05869 63.8671 1.6013C63.9744 1.46251 64.1605 1.44674 64.3087 1.37734C64.6085 1.26379 64.9113 1.15338 65.2078 1.03983M65.2268 1.09345C64.823 1.24802 64.4161 1.39627 64.0123 1.55083C63.9587 1.5603 63.9303 1.60761 63.9019 1.64862C63.9051 1.67385 63.9082 1.71802 63.9082 1.74325C63.905 2.12177 63.9082 2.5003 63.905 2.87882C63.9082 2.97345 63.8956 3.06808 63.9303 3.15325C63.8893 3.19426 63.8452 3.23526 63.7946 3.26681C63.3372 3.56332 62.8956 3.88506 62.4383 4.17842C62.3594 4.22573 62.2711 4.28882 62.2963 4.39291C62.2805 4.44969 62.3089 4.49701 62.3689 4.48124C63.3593 4.47493 64.3466 4.48754 65.3372 4.47177C66.8103 4.47177 68.2802 4.47493 69.7533 4.47177L69.7754 4.46231C69.8416 4.47808 69.9078 4.47177 69.9772 4.47177C72.6458 4.47177 75.3144 4.47493 77.9861 4.47177C78.8252 4.47493 79.6674 4.47177 80.5096 4.47177C81.8975 4.47177 83.2886 4.48439 84.6765 4.47808C84.7175 4.46862 84.7301 4.44023 84.7143 4.38976C84.7111 4.33929 84.7301 4.26989 84.6765 4.23835C84.4557 4.13426 84.2664 3.97338 84.0551 3.84721C83.9794 3.78412 83.8816 3.74942 83.8248 3.66426C83.6072 3.54124 83.4053 3.38983 83.1908 3.25419C83.1497 3.22895 83.1182 3.18795 83.0835 3.15325C83.1025 3.08701 83.1088 3.01446 83.1088 2.94506C83.1056 2.54446 83.1088 2.14385 83.1056 1.74325C83.1151 1.68016 83.1119 1.60761 83.0551 1.56661C82.6766 1.43097 82.3013 1.28587 81.9258 1.14708C81.8091 1.0903 81.6798 1.05875 81.5536 1.03983H65.4317C65.3624 1.04298 65.2962 1.07768 65.2268 1.09345V1.09345Z" stroke="#F8F3B5" stroke-width="0.0029651"/>
<path d="M63.9082 1.74121C64.1858 1.85792 64.4823 1.92416 64.7631 2.03772C64.9145 2.09765 64.9618 2.26168 65.028 2.39416C64.9617 2.46041 64.8829 2.51403 64.804 2.5645C64.5138 2.76007 64.2173 2.94933 63.9303 3.15121C63.8956 3.06604 63.9082 2.97141 63.905 2.87678C63.9082 2.49826 63.9051 2.11973 63.9082 1.74121ZM82.2508 2.03772C82.5315 1.92732 82.8249 1.85161 83.1057 1.74121C83.1088 2.14181 83.1057 2.54242 83.1088 2.94302C83.1088 3.01242 83.1025 3.08497 83.0836 3.15121C82.8376 2.98087 82.5884 2.82 82.3423 2.65282C82.2225 2.5645 82.09 2.49826 81.9827 2.39101C82.049 2.25853 82.0994 2.09765 82.2508 2.03772Z" fill="#F7B402" stroke="#F7B402" stroke-width="0.0029651"/>
<path d="M68.7223 2.16708C69.0692 2.08506 69.4572 2.39419 69.4288 2.75694C69.432 3.11338 69.0565 3.40359 68.7128 3.32157C68.574 3.27426 68.4414 3.20171 68.3563 3.07869C68.2459 2.9115 68.2206 2.68755 68.309 2.50459C68.3721 2.32795 68.5425 2.20808 68.7223 2.16708ZM77.7216 2.3658C77.8667 2.20493 78.097 2.11345 78.3115 2.17023C78.4724 2.21755 78.6301 2.32164 78.6995 2.47936C78.8383 2.75063 78.731 3.11654 78.4598 3.25848C78.22 3.39097 77.9172 3.32788 77.7343 3.13546C77.5482 2.92412 77.5355 2.57714 77.7216 2.3658Z" fill="#BDA727" stroke="#BDA727" stroke-width="0.0029651"/>
<path d="M64.8042 2.56509C64.883 2.51462 64.9619 2.461 65.0282 2.39476L65.0502 2.41684C65.0723 2.58086 65.0565 2.74804 65.0628 2.91207C65.0534 3.40415 65.0723 3.89939 65.0502 4.39147C64.1323 4.39147 63.2144 4.38516 62.2964 4.39147C62.2712 4.28737 62.3595 4.22429 62.4384 4.17697C62.8958 3.88361 63.3374 3.56187 63.7948 3.26536C63.8453 3.23382 63.8894 3.19281 63.9304 3.1518C64.2175 2.94992 64.514 2.76066 64.8042 2.56509ZM81.9512 2.502C81.9512 2.461 81.9607 2.4263 81.9827 2.3916C82.09 2.49885 82.2225 2.56509 82.3423 2.65341C82.5884 2.82059 82.8376 2.98147 83.0836 3.1518C83.1183 3.1865 83.1499 3.22751 83.1908 3.25274C83.4054 3.38838 83.6072 3.53979 83.8249 3.66281C83.8817 3.74798 83.9794 3.78267 84.0552 3.84576C84.2665 3.97194 84.4558 4.13281 84.6766 4.2369C84.7302 4.26845 84.7113 4.33784 84.7144 4.38831C83.7964 4.39147 82.8817 4.38516 81.9638 4.39147C81.948 4.26529 81.9575 4.13912 81.9544 4.0161C81.9544 3.5114 81.9481 3.0067 81.9512 2.502Z" fill="#F7E62D" stroke="#F7E62D" stroke-width="0.0029651"/>
<path d="M84.7145 4.38899C83.7965 4.39215 82.8818 4.38584 81.9639 4.39215C81.9481 4.26597 81.9576 4.1398 81.9545 4.01678C81.9545 3.51208 81.9481 3.00738 81.9512 2.50269C81.9512 2.46168 81.9608 2.42698 81.9828 2.39228C82.0491 2.2598 82.0995 2.09893 82.2509 2.039C82.5316 1.92859 82.825 1.85289 83.1058 1.74249C83.1153 1.6794 83.1121 1.60685 83.0553 1.56584C82.6767 1.4302 82.3014 1.2851 81.926 1.14631C81.8093 1.08953 81.68 1.05799 81.5538 1.03906H65.4319C65.3625 1.04222 65.2962 1.07691 65.2268 1.09269C64.8231 1.24725 64.4161 1.39551 64.0124 1.55007C63.9588 1.55953 63.9303 1.60685 63.902 1.64785C63.9051 1.67309 63.9083 1.71725 63.9083 1.74249C64.1859 1.8592 64.4823 1.92544 64.7631 2.039C64.9145 2.09893 64.9619 2.26295 65.0281 2.39544L65.0501 2.41752C65.0722 2.58155 65.0564 2.74873 65.0627 2.91275C65.0533 3.40483 65.0722 3.90007 65.0501 4.39215C64.1322 4.39215 63.2143 4.38584 62.2964 4.39215C62.2806 4.44893 62.309 4.49624 62.3689 4.48047C63.3594 4.47416 64.3467 4.48678 65.3372 4.47101C66.8103 4.47101 68.2802 4.47416 69.7533 4.47101L69.7754 4.46154C69.8416 4.47732 69.9078 4.47101 69.9772 4.47101C72.6458 4.47101 75.3144 4.47416 77.9861 4.47101C78.8252 4.47416 79.6674 4.47101 80.5096 4.47101C81.8975 4.47101 83.2886 4.48363 84.6765 4.47732C84.7177 4.46785 84.7303 4.43946 84.7145 4.38899ZM68.3087 2.50584C68.3718 2.3292 68.5421 2.20933 68.7219 2.16832C69.0689 2.08631 69.4569 2.39544 69.4285 2.75819C69.4316 3.11463 69.0562 3.40483 68.7124 3.32282C68.5737 3.2755 68.4411 3.20295 68.356 3.07993C68.2456 2.91275 68.2204 2.68879 68.3087 2.50584ZM77.7213 2.36705C77.8664 2.20618 78.0967 2.1147 78.3112 2.17148C78.472 2.21879 78.6298 2.32289 78.6992 2.48061C78.8379 2.75188 78.7307 3.11779 78.4594 3.25973C78.2196 3.39222 77.9169 3.32913 77.7339 3.13671C77.5478 2.92537 77.5351 2.57839 77.7213 2.36705Z" fill="url(#paint1_radial_454_3168)" stroke="#FCD109" stroke-width="0.0029651"/>
<path d="M78.5251 5.77521C78.5694 5.7847 78.2947 5.51129 78.3484 5.49864C78.399 5.50496 78.5909 5.35605 78.8228 5.47755C79.0546 5.59904 78.9972 5.88336 78.9708 5.9888C78.9395 6.11428 78.8597 6.19435 78.7964 6.25759C78.7616 6.28605 78.6836 6.33032 78.6362 6.32716C78.6647 6.17221 78.573 6.14691 78.5666 5.9888L78.5251 5.77521Z" fill="url(#paint2_linear_454_3168)" stroke="#FCD109" stroke-width="0.0029651"/>
<path d="M68.4426 5.9478C68.4363 6.10591 68.3445 6.13121 68.3731 6.28617C68.3256 6.28933 68.2476 6.24506 68.2128 6.21659C68.1496 6.15335 68.0698 6.07328 68.0384 5.9478C68.0121 5.8424 67.9546 5.55808 68.1865 5.43655C68.4184 5.31502 68.6102 5.46394 68.6608 5.45764C68.7146 5.47029 68.4399 5.7437 68.4841 5.73422L68.4426 5.9478Z" fill="url(#paint3_linear_454_3168)" stroke="#FCD109" stroke-width="0.0029651"/>
<path d="M78.1119 7.7951C78.1594 7.75391 78.1909 7.75391 78.254 7.75391C77.8755 8.57404 77.4339 9.39417 76.7699 10.0327C76.6989 10.0961 76.6239 10.1549 76.5453 10.2087C76.4693 10.2643 76.3948 10.3164 76.3207 10.3696C76.2482 10.42 76.1761 10.4706 76.1058 10.5235C75.926 10.6213 75.7683 10.7569 75.5696 10.8168C75.2068 10.9903 74.8158 11.107 74.4215 11.189C74.2669 11.2143 74.1092 11.2521 73.9515 11.2553C73.7559 11.3121 73.5477 11.271 73.349 11.2837C73.2386 11.3026 73.1407 11.2395 73.0336 11.2521C72.9405 11.239 72.8477 11.2232 72.7554 11.2048C72.6618 11.1856 72.5688 11.1636 72.4765 11.1386C71.0305 10.6875 69.611 9.58344 69.1975 8.09032C69.1789 7.98976 69.1695 7.88772 69.1694 7.78545C69.2136 7.87377 69.2593 7.96146 69.3067 8.04833C69.8949 9.33109 71.0621 10.3405 72.4409 10.6448C72.5528 10.6959 72.6739 10.678 72.7812 10.7222C72.879 10.7222 72.9736 10.719 73.0683 10.7505C73.3932 10.7568 73.7181 10.7537 74.043 10.7537C74.0871 10.7569 74.1281 10.7348 74.1723 10.7253C74.7138 10.707 75.2443 10.5593 75.7383 10.3353C75.8372 10.2905 75.9345 10.2427 76.0302 10.1922C76.1139 10.1481 76.1957 10.1004 76.2752 10.049C76.3533 9.9987 76.4293 9.94507 76.5029 9.8883C77.0869 9.42572 77.5916 8.82639 77.9343 8.13719C77.9995 8.01316 78.0592 7.89831 78.1119 7.7951Z" fill="#BDA727" stroke="#BDA727" stroke-width="0.0029651"/>
<path d="M77.5982 10.6016C78.535 10.0528 79.6202 9.78779 80.699 9.73732C81.0491 9.70578 81.4024 9.71524 81.7494 9.7594C81.9765 9.81303 82.2099 9.87612 82.3897 10.0307C82.2983 10.037 82.2099 9.99598 82.1185 9.98336C81.8598 9.93289 81.5917 9.95182 81.3299 9.94551C80.5696 9.94551 79.8032 10.0054 79.0682 10.2136C78.6834 10.3303 78.2985 10.466 77.9484 10.6679C77.3428 11.0022 76.797 11.4438 76.3554 11.9738C75.5668 12.8791 75.1032 14.0273 74.8792 15.1976C74.7719 15.8252 74.6489 16.4497 74.5511 17.0806C74.3934 17.0964 74.2326 17.087 74.0748 17.087C73.3809 17.0838 72.6869 17.0806 71.993 17.0744C71.8447 17.0806 71.6995 17.046 71.5513 17.0554C70.2896 17.0617 69.0279 17.0523 67.7661 17.0523L67.7913 17.0428C68.7282 16.9449 69.6682 16.8345 70.605 16.7431C71.7942 16.7368 72.9803 16.7399 74.1695 16.7431C74.2073 16.7368 74.2736 16.7557 74.2799 16.7021C74.3777 16.1911 74.4723 15.6801 74.57 15.169C74.7057 14.4594 74.9202 13.7591 75.2514 13.1125C75.7719 12.0715 76.5952 11.1883 77.5982 10.6016Z" fill="#0D69B3" stroke="#0D69B3" stroke-width="0.0029651"/>
<path d="M79.0683 10.2105C79.8033 10.0023 80.5698 9.94238 81.33 9.94238C81.5918 9.94869 81.8599 9.92977 82.1186 9.98024C82.21 9.99285 82.2983 10.0339 82.3899 10.0276C82.5381 10.1474 82.6265 10.3241 82.6927 10.5007C82.8379 10.9202 82.9198 11.3555 82.9892 11.794C82.9924 11.9706 83.0239 12.1694 82.9293 12.3302C82.841 12.488 82.6644 12.5637 82.4972 12.611C81.8883 12.7687 81.2512 12.6204 80.6424 12.7687C80.1409 12.8759 79.674 13.1535 79.3554 13.5541C78.98 14.0209 78.7813 14.6013 78.6709 15.1818C78.5858 15.6991 78.4785 16.2164 78.3933 16.7368C78.3555 16.8536 78.3334 16.9798 78.3113 17.1028C78.9074 17.1123 79.5036 17.1028 80.0998 17.1091C80.3269 17.1028 80.554 17.1154 80.7812 17.0996C80.9073 17.3898 80.8789 17.7179 80.8379 18.0239C80.7875 18.3677 80.7055 18.7083 80.5509 19.0238C80.4215 19.2919 80.2071 19.5379 79.9137 19.6326C79.7623 19.6925 79.5983 19.6799 79.4374 19.6799C78.9074 19.6799 78.3775 19.6862 77.8476 19.6799C77.7624 20.0679 77.7057 20.4653 77.63 20.8596C77.4912 21.6261 77.3556 22.3958 77.2167 23.1655C77.2136 23.1907 77.2104 23.2443 77.2104 23.2727V23.2759C75.832 23.2759 74.4567 23.2791 73.0782 23.2759C73.0814 23.2633 73.0845 23.2412 73.0877 23.2285C73.0909 23.2128 73.094 23.1781 73.0972 23.1592C73.1004 23.1845 73.1034 23.2318 73.1067 23.2538C73.1918 23.2633 73.3464 23.3074 73.3685 23.1845C73.583 22.0236 73.7817 20.8565 74.0025 19.6957C73.9174 19.6767 73.829 19.6767 73.7407 19.6925C73.7281 19.7367 73.7155 19.7808 73.6997 19.825L73.7186 19.683C72.8607 19.6798 71.9995 19.683 71.1416 19.6798C70.9333 19.6736 70.7189 19.6798 70.5107 19.6546C70.1542 19.6388 69.7946 19.6514 69.4382 19.6167C68.9966 19.6167 68.5581 19.5757 68.1165 19.5757C67.7695 19.541 67.4194 19.5536 67.0693 19.5379C66.8422 19.5095 66.6087 19.5221 66.3785 19.5126C66.0032 19.4716 65.6215 19.5001 65.2461 19.459C64.8487 19.4622 64.4512 19.4275 64.0538 19.418C64.0569 19.4149 64.0601 19.4022 64.0601 19.3991C64.1926 19.4022 64.3219 19.3928 64.4544 19.3896C64.7477 19.3518 65.0442 19.377 65.3376 19.336C65.6436 19.336 65.9464 19.295 66.2524 19.295C66.5236 19.2571 66.7981 19.2792 67.0693 19.2414C67.3879 19.2414 67.7001 19.2003 68.0188 19.1972C68.2806 19.1625 68.5456 19.1814 68.8074 19.1467C69.1134 19.1499 69.4162 19.1026 69.7222 19.1057C70.0218 19.0709 70.3277 19.0804 70.6274 19.0489C70.5991 18.9322 70.5769 18.8155 70.5518 18.6988C70.5297 18.6262 70.4414 18.642 70.3846 18.6325C69.7001 18.5347 69.0187 18.4369 68.3374 18.3423C68.3816 18.3075 68.4415 18.3233 68.492 18.3171C69.0219 18.276 69.5487 18.2287 70.0786 18.1909C70.1985 18.1846 70.3152 18.1625 70.435 18.1594C70.3814 17.9953 70.3499 17.8155 70.2773 17.6641C69.145 17.4906 68.0125 17.336 66.8832 17.15C67.1766 17.1027 67.4731 17.0805 67.7665 17.049C69.0282 17.049 70.2899 17.0585 71.5517 17.0522C71.6999 17.0427 71.845 17.0774 71.9933 17.0711C72.6873 17.0774 73.3812 17.0806 74.0752 17.0837C74.2329 17.0837 74.3938 17.0932 74.5515 17.0774C74.6493 16.4465 74.7723 15.822 74.8795 15.1943C75.1035 14.024 75.5672 12.8758 76.3558 11.9706C76.7974 11.4406 77.3431 10.999 77.9487 10.6646C78.2987 10.4629 78.6835 10.3272 79.0683 10.2105Z" fill="#107BD4" stroke="#107BD4" stroke-width="0.0029651"/>
<path d="M78.3932 16.7373C78.9925 16.7405 79.595 16.7342 80.1975 16.7405C80.4372 16.7405 80.6832 16.873 80.781 17.1001C80.5539 17.1158 80.3268 17.1033 80.0997 17.1095C79.5035 17.1033 78.9073 17.1128 78.3111 17.1033C78.3332 16.9802 78.3552 16.854 78.3932 16.7373ZM73.7405 19.693C73.8288 19.6772 73.9172 19.6772 74.0023 19.6961C73.7815 20.857 73.5828 22.0241 73.3683 23.1849C73.3462 23.3079 73.1916 23.2638 73.1064 23.2543C73.1032 23.2322 73.1001 23.1849 73.097 23.1596C73.2957 22.0493 73.4881 20.9358 73.6995 19.8255C73.7152 19.7813 73.7279 19.7372 73.7405 19.693Z" fill="#0D69B3" stroke="#0D69B3" stroke-width="0.0029651"/>
<path d="M78.6686 5.8643C78.6433 5.81699 78.6402 5.76021 78.6402 5.70659L78.6149 5.70974C78.5771 5.57095 78.4604 5.43847 78.309 5.43216C78.1954 5.42269 78.0535 5.42585 77.9873 5.5331C77.8611 5.70343 77.921 5.92108 77.9147 6.1135C77.9147 6.12612 77.9179 6.1482 77.9179 6.16081C77.9179 6.29014 77.9021 6.41632 77.88 6.54249C77.8611 6.58034 77.8517 6.62135 77.8517 6.66551C77.7981 6.96202 77.6908 7.25538 77.5457 7.5235C77.5173 7.56135 77.4952 7.60236 77.4858 7.64652C77.3912 7.81054 77.2776 7.96195 77.1609 8.11336C77.1419 8.12914 77.1262 8.14806 77.1104 8.16699C77.0284 8.26793 76.9401 8.3531 76.8486 8.44142C76.8265 8.45403 76.8107 8.46981 76.7918 8.48242C76.6846 8.58652 76.5647 8.6843 76.4353 8.76316C76.4196 8.77263 76.4038 8.78524 76.3848 8.79786C75.5773 9.33095 74.5963 9.55175 73.6405 9.56122C72.8299 9.58645 72.0129 9.41296 71.281 9.06283C71.2685 9.05652 71.2369 9.0439 71.2243 9.03759C71.1013 8.97135 70.9751 8.91457 70.8615 8.83256C70.8363 8.81994 70.811 8.80417 70.7827 8.79155C70.6659 8.72216 70.5555 8.64645 70.4514 8.55813C70.4167 8.52659 70.3789 8.50135 70.341 8.47296C70.2275 8.38148 70.1108 8.2837 70.0131 8.1733C69.9878 8.14491 69.9625 8.11967 69.9373 8.09444C69.5936 7.73799 69.3255 7.30269 69.1835 6.82954C69.0478 6.45417 69.0668 6.0441 69.051 5.64981C68.9374 5.47632 68.6977 5.37853 68.5085 5.48578C68.4296 5.54256 68.4202 5.64665 68.3602 5.7192C68.2624 6.76014 68.7072 7.79793 69.4169 8.54867C69.4169 8.5739 69.4296 8.58967 69.4517 8.59914C69.5779 8.71585 69.7008 8.83571 69.827 8.94927C69.8491 8.97135 69.8743 8.99343 69.9027 9.01236C70.0289 9.11645 70.1645 9.21108 70.297 9.30887C70.3222 9.32779 70.3475 9.34356 70.3759 9.35934C70.5494 9.46028 70.7133 9.58014 70.8995 9.64954C70.9121 9.659 70.9342 9.67477 70.9468 9.68108C71.5461 9.96813 72.1928 10.1637 72.8552 10.2268C72.9277 10.2268 73.0003 10.2331 73.0728 10.2489C73.3883 10.2678 73.7037 10.2583 74.0192 10.252C74.9938 10.1669 76.0001 9.93028 76.8139 9.35618L76.8234 9.3688C76.8486 9.34672 76.8707 9.32779 76.8959 9.30887C77.0253 9.21424 77.1515 9.1133 77.2777 9.0092C77.306 8.98712 77.3375 8.96189 77.366 8.9335C77.5048 8.78209 77.6657 8.6433 77.7824 8.46981L77.8013 8.47927C77.8108 8.4635 77.8265 8.43195 77.8361 8.41618C77.9432 8.27108 78.0411 8.11967 78.1357 7.96826C78.142 7.9588 78.1577 7.94303 78.164 7.93356L78.1515 7.92095C78.161 7.90833 78.183 7.8831 78.1925 7.87048C78.366 7.51719 78.5205 7.14813 78.5742 6.75699C78.5963 6.74753 78.6089 6.7286 78.6089 6.70652C78.6121 6.58034 78.6562 6.46048 78.6436 6.3343C78.6717 6.17974 78.6749 6.02202 78.6686 5.8643Z" fill="white" stroke="white" stroke-width="0.0029651"/>
<path d="M68.1182 5.7569C68.3739 5.83711 68.9613 5.6353 69.1276 5.81998M68.2654 6.53495C68.5104 6.44969 69.0358 6.24781 69.2537 6.36673M68.5177 7.31304C68.6362 7.3514 68.8697 7.1433 68.9856 7.08233C69.1582 6.99158 69.3352 6.92202 69.5271 6.89247M68.8963 8.13317C69.0184 7.95956 69.1647 7.81537 69.3411 7.69203C69.5161 7.56983 69.9947 7.24333 70.2 7.35509M69.2537 8.722C69.3924 8.61175 69.4489 8.41675 69.5945 8.30092C69.7706 8.1608 70.0405 8.13566 70.2211 8.04905M69.8478 9.15831C69.8893 8.85334 70.1989 8.48533 70.4944 8.51166M70.3052 9.58418C70.4613 9.56853 70.5934 9.21903 70.699 9.10058C70.8572 8.92315 71.0211 8.86858 71.2304 8.80609M71.2094 9.9627C71.1993 9.74202 71.4273 9.10929 71.6931 9.14257M71.8824 10.173C71.8713 9.9122 72.0061 9.12774 72.324 9.10052M72.5763 10.5936C72.516 10.2289 72.5199 9.70127 72.8076 9.43697M73.4385 10.6777C73.4065 10.3737 73.1044 9.75912 73.4385 9.52109M74.3638 10.4674C74.2195 10.3002 74.1357 9.64061 74.1955 9.458M75.247 10.3202C75.1358 10.1182 74.9979 9.92854 74.9558 9.69408C74.9306 9.55396 74.9747 9.35435 74.9526 9.2477M75.983 10.0048C75.7417 9.84694 75.6748 9.26691 75.7517 9.01639M76.698 9.68931C76.5264 9.32117 76.3434 9.03573 76.3405 8.61683M77.392 9.01639C77.1253 8.83701 76.785 8.51091 76.8242 8.15421M78.128 8.44861C77.7228 8.35884 77.2366 7.99631 76.9924 7.67052M78.4644 7.75465C78.1722 7.69197 77.2064 7.31518 77.2658 6.93452M78.7799 7.01864C78.3726 6.86935 77.7802 6.73513 77.455 6.45086M78.9901 6.34569C78.7336 6.36765 78.3661 6.24346 78.1054 6.19848C77.8159 6.14854 77.5475 6.05098 77.2658 5.98818M78.7378 5.69381C78.243 5.72343 77.7788 5.55414 77.3289 5.39941" stroke="#D1D1D1" stroke-width="0.0630872"/>
<path d="M15.4313 7.21316C15.8885 7.14417 16.4145 7.10105 16.8026 7.38564C17.0441 7.5667 17.1303 7.89441 17.1131 8.1877C17.1303 8.67063 16.9061 9.1881 16.475 9.43825C16.0954 9.64524 15.6384 9.66239 15.2157 9.61931C14.9312 9.58486 14.6466 9.42967 14.5 9.17091C14.1722 8.42059 14.5775 7.35977 15.4313 7.21316ZM1.75309 7.7565C1.77893 7.49775 2.01181 7.26489 2.27914 7.27356C4.27144 7.27356 6.25503 7.28214 8.23865 7.27356C8.45425 7.25631 8.68713 7.35113 8.79057 7.54087C8.93715 7.79962 8.80782 8.0842 8.79057 8.3516C8.73025 8.71375 8.74745 9.19678 8.32492 9.33472C6.876 9.37784 5.42707 9.33472 3.97815 9.35197C3.84018 10.2661 3.71082 11.1717 3.57278 12.0772C3.57278 12.1117 3.58145 12.1894 3.58145 12.2238C4.64223 12.2152 5.70302 12.2238 6.7638 12.2152C7.05706 12.198 7.36748 12.4482 7.34161 12.7586C7.31578 13.0777 7.24676 13.3881 7.20367 13.7073C7.1691 13.9228 6.99665 14.1212 6.77241 14.1643C5.59085 14.1902 4.39203 14.1385 3.2106 14.1902C3.0208 15.4925 2.79655 16.7947 2.59818 18.097C2.57237 18.3558 2.36532 18.58 2.1066 18.5885C1.61506 18.5972 1.12341 18.5972 0.631876 18.5885C0.312781 18.5972 0.0540268 18.2435 0.140236 17.9417C0.666478 14.5439 1.20978 11.1545 1.75309 7.7565ZM10.5154 7.29072C10.9639 7.25628 11.421 7.28214 11.8695 7.27356C12.1455 7.25631 12.4215 7.47188 12.4473 7.7565C12.4473 7.98068 12.3869 8.20495 12.3611 8.42916C11.9988 10.7405 11.628 13.0519 11.2657 15.3632C11.214 15.734 11.1191 16.1307 11.2313 16.5102C11.3606 16.8897 11.9384 16.7258 12.0764 17.1225C12.1626 17.4416 12.0677 17.7779 12.0419 18.1057C12.016 18.5369 11.5244 18.6317 11.1881 18.7267C10.4551 18.8647 9.5667 18.7612 9.04061 18.1574C8.66114 17.7177 8.63525 17.0966 8.71294 16.5447C9.17001 13.6125 9.62707 10.6802 10.0928 7.73924C10.1187 7.52361 10.2912 7.32527 10.5154 7.29072ZM27.6348 7.7565C27.6606 7.49775 27.8935 7.27356 28.1522 7.27356H29.4631C29.7909 7.26489 30.0583 7.61853 29.9806 7.92895C29.6788 9.84358 29.3683 11.7582 29.0665 13.6727C29.5236 13.6038 30.0411 13.5175 30.3601 13.1467C30.8948 12.5429 31.3347 11.8445 31.6624 11.1114C31.7745 10.8268 31.8349 10.4128 32.2057 10.3611C32.6973 10.3438 33.1975 10.3524 33.6891 10.3611C34.0255 10.3524 34.2756 10.7319 34.1635 11.0423C34.0341 11.4995 33.8185 11.9221 33.5943 12.3274C33.094 13.1381 32.5421 13.9401 31.8176 14.5783C32.1367 15.5356 32.5421 16.4671 32.8957 17.4072C32.9991 17.7176 33.2494 18.0798 33.0164 18.3817C32.749 18.7439 32.2488 18.5627 31.878 18.6059C31.4899 18.5627 30.9293 18.7611 30.7137 18.3213C30.3083 17.3812 29.972 16.4154 29.558 15.4753C29.3165 15.4838 29.0665 15.4925 28.8249 15.4667C28.8078 15.5012 28.7732 15.5701 28.7559 15.6047C28.6265 16.4671 28.4886 17.3295 28.3506 18.1919C28.2988 18.3989 28.1349 18.5801 27.9108 18.5973C27.4537 18.6146 26.9879 18.6059 26.5222 18.6059C26.3238 18.6059 26.1428 18.4765 26.0565 18.3041C25.9703 18.1315 26.022 17.9332 26.048 17.7435C26.5826 14.4145 27.1087 11.0855 27.6348 7.7565ZM51.6019 8.69656C51.6623 8.455 51.8951 8.29119 52.1366 8.29977C52.4816 8.30845 52.8352 8.29119 53.1887 8.30845C53.4734 8.31703 53.6976 8.60165 53.6631 8.87762C53.6113 9.36923 53.4905 9.86084 53.4561 10.3523C53.7924 10.3523 54.1374 10.3438 54.4738 10.3523C54.7756 10.3523 55.0258 10.6629 54.974 10.956C54.9308 11.2235 54.8704 11.4822 54.8273 11.7495C54.7842 11.9738 54.5945 12.1549 54.3789 12.1894C53.9649 12.2152 53.5596 12.1721 53.1543 12.2152C52.9818 13.3708 52.792 14.5265 52.6109 15.6822C52.585 15.9496 52.5678 16.2514 52.723 16.4843C52.9559 16.7689 53.3612 16.6653 53.689 16.6999C53.9477 16.7775 54.1115 17.0621 54.0684 17.3209C54.0253 17.6141 54.0167 17.9073 53.9477 18.1919C53.8442 18.5109 53.4734 18.5714 53.1887 18.6489C52.4039 18.856 51.4983 18.856 50.7998 18.3989C50.153 17.959 50.0495 17.1052 50.1185 16.3807C50.2995 14.9836 50.5842 13.5951 50.7394 12.1893C50.498 12.1979 50.2047 12.2324 50.0236 12.0168C49.8167 11.8012 49.9202 11.4821 49.9546 11.2147C50.0064 10.9301 49.9977 10.5593 50.3083 10.404C50.5583 10.3091 50.843 10.3782 51.1103 10.3436C51.2742 9.79179 51.4294 9.23987 51.6019 8.69656ZM46.7291 11.4908C47.2724 10.9474 47.9279 10.499 48.6782 10.2748C49.0059 10.1282 49.4285 10.4042 49.4199 10.7664C49.3596 11.2407 49.2474 11.7064 49.1698 12.1721C49.1352 12.405 48.9369 12.6034 48.704 12.6292C47.8588 12.7758 47.1258 13.2845 46.5393 13.8883C46.3928 14.0695 46.1771 14.242 46.1513 14.492C45.9702 15.6994 45.7804 16.9069 45.5907 18.1143C45.5649 18.3729 45.3405 18.6231 45.0732 18.6059H43.7623C43.4605 18.6231 43.1931 18.3213 43.2276 18.0194C43.6071 15.6304 43.9866 13.2502 44.3574 10.8612C44.3747 10.6197 44.5472 10.3869 44.7972 10.361C45.1163 10.3437 45.4354 10.3523 45.7632 10.3523C46.0219 10.3523 46.2633 10.5852 46.2633 10.8526C46.2633 11.2234 46.2289 11.6029 46.2202 11.9823C46.4273 11.8531 46.5566 11.646 46.7291 11.4908ZM14.4913 10.3955C14.957 10.3007 15.4399 10.3783 15.9056 10.3524C16.173 10.3179 16.4576 10.4904 16.5007 10.7578C16.5353 10.9992 16.4662 11.2321 16.4403 11.465C16.0868 13.6815 15.7331 15.8979 15.3881 18.1143C15.3623 18.3646 15.1554 18.6146 14.8879 18.6059C14.4223 18.6059 13.9565 18.6146 13.4822 18.5974C13.189 18.5628 12.9733 18.2265 13.051 17.9419C13.4219 15.6392 13.7755 13.3451 14.1463 11.0424C14.1636 10.7923 14.2326 10.499 14.4913 10.3955ZM42.3997 10.5077C41.1146 10.2661 39.8038 10.0937 38.5014 10.223C37.3372 10.3697 36.1642 10.8958 35.4485 11.8531C34.4567 13.1122 34.1203 14.8026 34.3445 16.3723C34.4653 17.1226 34.7929 17.8815 35.4053 18.3472C35.9745 18.7871 36.7421 18.8474 37.4321 18.7353C38.3979 18.5455 39.2172 17.9247 39.89 17.2347C39.9244 17.5279 39.8554 17.8211 39.8727 18.1058C39.89 18.373 40.1314 18.6231 40.3988 18.6059H41.2785C41.5372 18.6059 41.7529 18.3645 41.7701 18.1143C42.141 15.7771 42.5118 13.4485 42.874 11.12C42.9257 10.8267 42.6929 10.5421 42.3997 10.5077ZM39.9763 14.5697C39.6313 15.2166 39.1483 15.803 38.6049 16.3031C38.2945 16.5619 37.8977 16.8293 37.4752 16.7431C37.0612 16.6568 36.8628 16.2256 36.768 15.8548C36.5524 14.8889 36.7508 13.8366 37.294 13.0001C37.5355 12.6119 37.9236 12.3188 38.3721 12.198C39.0016 12.0427 39.6658 12.1204 40.2782 12.2928L40.3126 12.3274C40.235 13.0777 40.0884 13.8194 39.9763 14.5697ZM25.4701 13.2761C25.4614 12.4136 25.2286 11.5081 24.6249 10.8612C24.211 10.4042 23.59 10.1713 22.9863 10.1799C21.9858 10.1455 21.0458 10.6371 20.3128 11.2924C20.1488 11.4219 20.0367 11.6116 19.8557 11.7151C19.8557 11.4304 19.8815 11.1458 19.8728 10.8526C19.8815 10.5852 19.6314 10.3524 19.3727 10.3524H18.4929C18.217 10.3524 17.9928 10.5939 17.9755 10.8612C17.4322 14.311 16.8803 17.7607 16.3369 21.2105C16.2593 21.5295 16.5353 21.8573 16.8631 21.8487C17.346 21.8401 17.8376 21.8832 18.3119 21.8141C18.6914 21.7106 18.6827 21.2708 18.7431 20.9517C18.8811 20.1927 18.976 19.4338 19.0622 18.6662C20.7612 18.9939 22.7362 18.7698 24.004 17.4847C25.0389 16.355 25.5218 14.7939 25.4701 13.2761ZM23.0553 14.1471C23.0036 14.9406 22.7189 15.7426 22.167 16.3204C21.4512 17.0018 20.3645 16.9069 19.4848 16.6741C19.4676 16.6482 19.4417 16.5964 19.4331 16.5706C19.571 15.8203 19.6401 15.0613 19.8126 14.3196C20.2955 13.5262 20.8819 12.7241 21.7185 12.2843C22.029 12.1377 22.4516 12.1722 22.6758 12.4568C23.0553 12.9311 23.0898 13.5693 23.0553 14.1471Z" fill="#0D69B3" stroke="#107BD4" stroke-width="0.0031859"/>
</g>
<defs>
<linearGradient id="paint0_linear_454_3168" x1="73.5085" y1="4.76169" x2="73.5085" y2="23.3019" gradientUnits="userSpaceOnUse">
<stop stop-color="#F7E830"/>
<stop offset="1" stop-color="#FDCB06"/>
</linearGradient>
<radialGradient id="paint1_radial_454_3168" cx="0" cy="0" r="1" gradientUnits="userSpaceOnUse" gradientTransform="translate(73.412 13.2174) scale(15.0804 15.0804)">
<stop offset="0.596" stop-color="#F29405"/>
<stop offset="0.736" stop-color="#F7D01E"/>
<stop offset="1" stop-color="#FDCB06"/>
</radialGradient>
<linearGradient id="paint2_linear_454_3168" x1="78.6678" y1="5.42945" x2="78.6731" y2="6.30961" gradientUnits="userSpaceOnUse">
<stop stop-color="#FADA1C"/>
<stop offset="1" stop-color="#FDCB06"/>
</linearGradient>
<linearGradient id="paint3_linear_454_3168" x1="68.3414" y1="5.38845" x2="68.3361" y2="6.26861" gradientUnits="userSpaceOnUse">
<stop stop-color="#FADA1C"/>
<stop offset="1" stop-color="#FDCB06"/>
</linearGradient>
<clipPath id="clip0_454_3168">
<rect width="84.6405" height="22.3139" fill="white" transform="translate(0.121826 0.991211)"/>
</clipPath>
</defs>
</svg>
